<?xml version="1.0" standalone="no"?>
<!DOCTYPE svg PUBLIC "-//W3C//DTD SVG 1.1//EN" "http://www.w3.org/Graphics/SVG/1.1/DTD/svg11.dtd" >
<svg xmlns="http://www.w3.org/2000/svg" xmlns:xlink="http://www.w3.org/1999/xlink" version="1.1">
<metadata></metadata>
<defs>
<font id="media_gothicregular" horiz-adv-x="1460" >
<font-face units-per-em="2048" ascent="1638" descent="-410" />
<missing-glyph horiz-adv-x="510" />
<glyph horiz-adv-x="0" />
<glyph horiz-adv-x="682" />
<glyph unicode=" "  horiz-adv-x="510" />
<glyph unicode="&#x09;" horiz-adv-x="510" />
<glyph unicode="&#xa0;" horiz-adv-x="510" />
<glyph unicode="!" horiz-adv-x="774" d="M238 140q0 68 43 115t105 49q64 0 106 -48t42 -118q0 -66 -43 -114t-105 -48t-105 48t-43 116zM242 1364h284l-100 -884h-76z" />
<glyph unicode="&#x22;" horiz-adv-x="1136" d="M156 1360h256l-106 -584h-44zM660 1360h256l-106 -584h-44z" />
<glyph unicode="#" horiz-adv-x="1570" />
<glyph unicode="$" />
<glyph unicode="%" horiz-adv-x="1808" />
<glyph unicode="&#x26;" horiz-adv-x="1584" />
<glyph unicode="'" horiz-adv-x="568" />
<glyph unicode="(" horiz-adv-x="682" />
<glyph unicode=")" horiz-adv-x="682" />
<glyph unicode="*" horiz-adv-x="1032" />
<glyph unicode="+" horiz-adv-x="1570" />
<glyph unicode="," horiz-adv-x="628" d="M166 142q0 74 36 118t96 44q82 0 124 -74q40 -68 40 -160q0 -220 -214 -384l-28 64q70 54 108 105t58 133q-70 -12 -90 -12q-58 0 -94 46t-36 120z" />
<glyph unicode="-" horiz-adv-x="454" />
<glyph unicode="." horiz-adv-x="628" d="M166 140q0 68 42 115t106 49q62 0 105 -48t43 -118q0 -66 -44 -114t-104 -48q-62 0 -105 48t-43 116z" />
<glyph unicode="/" horiz-adv-x="1554" />
<glyph unicode="0" />
<glyph unicode="1" />
<glyph unicode="2" />
<glyph unicode="3" />
<glyph unicode="4" />
<glyph unicode="5" />
<glyph unicode="6" />
<glyph unicode="7" />
<glyph unicode="8" />
<glyph unicode="9" />
<glyph unicode=":" horiz-adv-x="628" />
<glyph unicode=";" horiz-adv-x="628" />
<glyph unicode="&#x3c;" horiz-adv-x="1024" />
<glyph unicode="=" horiz-adv-x="1570" />
<glyph unicode="&#x3e;" horiz-adv-x="1024" />
<glyph unicode="?" horiz-adv-x="1000" />
<glyph unicode="@" horiz-adv-x="1682" />
<glyph unicode="A" horiz-adv-x="1666" d="M82 0l632 1364h236l648 -1364h-284l-174 348h-640l-174 -348h-244zM576 534h492l-244 486z" />
<glyph unicode="B" horiz-adv-x="1650" d="M202 0v1364h844q132 0 210 -20t136 -68q116 -94 116 -274q0 -200 -212 -288q256 -86 256 -322q0 -186 -128 -292q-66 -54 -152 -77t-216 -23h-854zM468 224h522q146 0 212 40q78 44 78 146t-78 148q-66 38 -212 38h-522v-372zM468 822h540q124 0 176 34q58 40 58 124 q0 86 -55 123t-179 37h-540v-318z" />
<glyph unicode="C" horiz-adv-x="1718" d="M106 682q0 248 142 432q214 274 646 274q160 0 274 -34t286 -134q82 -46 124 -92l-110 -192q-88 86 -154 122q-180 100 -382 100q-240 0 -384 -118q-170 -136 -170 -358q0 -220 170 -358q144 -116 384 -116q202 0 382 100q64 36 154 116l110 -192q-40 -40 -124 -88 q-170 -100 -285 -134t-275 -34q-318 0 -520 152q-120 90 -188 222q-80 150 -80 332z" />
<glyph unicode="D" horiz-adv-x="1716" d="M202 0v1364h682q246 0 378 -56q186 -84 276 -274q70 -150 70 -352q0 -352 -210 -538q-90 -78 -209 -111t-305 -33h-682zM468 224h390q184 0 278 50q200 104 200 408q0 220 -108 338q-60 64 -146 92t-224 28h-390v-916z" />
<glyph unicode="E" horiz-adv-x="1556" d="M202 0v1364h1224v-224h-958v-324h658v-218h-658v-374h982v-224h-1248z" />
<glyph unicode="F" horiz-adv-x="1490" d="M202 0v1364h1216v-224h-950v-326h658v-218h-658v-596h-266z" />
<glyph unicode="G" horiz-adv-x="1756" d="M106 682q0 328 228 522q218 184 580 184q116 0 218 -21t232 -73q66 -26 120 -70l-84 -216q-120 80 -252 115t-240 35q-220 0 -364 -120q-166 -136 -166 -360q0 -216 162 -348q146 -122 384 -122q114 0 226 26t202 70v186h-440v190h654v-384v-136q-312 -184 -672 -184 q-326 0 -530 156q-258 198 -258 550z" />
<glyph unicode="H" horiz-adv-x="1756" d="M202 0v1364h266v-544h820v544h266v-1364h-266v596h-820v-596h-266z" />
<glyph unicode="I" horiz-adv-x="670" d="M202 0v1364h266v-1364h-266z" />
<glyph unicode="J" horiz-adv-x="1238" d="M52 120l68 216q142 -80 234 -104t178 -24q140 0 206 60q34 32 46 74t12 128v894h266v-908q0 -198 -54 -286q-54 -94 -165 -144t-259 -50q-84 0 -147 12t-209 54q-88 26 -176 78z" />
<glyph unicode="K" horiz-adv-x="1642" d="M202 0v1364h266v-582l722 582h352l-656 -552l656 -812h-326l-524 638l-224 -168v-470h-266z" />
<glyph unicode="L" horiz-adv-x="1448" d="M202 0v1364h266v-1140h944v-224h-1210z" />
<glyph unicode="M" horiz-adv-x="1978" d="M202 0v1364h332l454 -818l478 818h310v-1364h-266v942l-548 -924l-518 924v-942h-242z" />
<glyph unicode="N" horiz-adv-x="1784" d="M202 0v1364h240l898 -914v914h242v-1364h-216l-922 934v-934h-242z" />
<glyph unicode="O" horiz-adv-x="1752" d="M106 682q0 206 104 376q194 324 662 330q352 0 556 -192q216 -202 216 -522q0 -196 -104 -366q-202 -332 -666 -332q-348 0 -552 192q-108 104 -166 248q-50 126 -50 266zM378 682q0 -222 160 -358q134 -116 338 -116q202 0 336 116q80 68 122 168q38 90 38 184 q0 232 -160 366q-136 114 -338 116q-202 0 -336 -116q-160 -138 -160 -360z" />
<glyph unicode="P" horiz-adv-x="1566" d="M202 0v1364h772q148 0 233 -20t149 -68q66 -52 104 -134q36 -86 36 -182q0 -138 -72 -242q-60 -90 -161 -127t-289 -37h-506v-554h-266zM468 778h472q140 0 198 30q40 18 63 60t23 92q0 48 -23 90t-63 60q-58 30 -198 30h-472v-362z" />
<glyph unicode="Q" horiz-adv-x="1752" d="M106 682q0 206 104 374q200 332 666 332q348 0 552 -192q108 -104 166 -246q50 -128 50 -268q0 -300 -210 -498q76 -70 192 -232l-176 -176q-118 180 -206 264q-166 -64 -374 -64q-344 0 -548 192q-108 104 -166 248q-50 126 -50 266zM378 682q0 -222 160 -358 q134 -116 338 -116q96 0 210 32q-24 14 -32 24q-74 96 -144 160l78 112q110 -48 264 -162q120 132 120 310q0 220 -160 358q-134 116 -336 116q-204 0 -338 -116q-160 -138 -160 -360z" />
<glyph unicode="R" horiz-adv-x="1656" d="M202 0v1364h774q154 0 244 -18t156 -62q74 -52 112 -142q34 -86 34 -184q0 -334 -382 -390l390 -568h-290l-384 556h-388v-556h-266zM468 782h476q104 0 147 6t83 24q84 42 84 148q0 108 -84 148q-38 20 -81 26t-149 6h-476v-358z" />
<glyph unicode="S" horiz-adv-x="1474" d="M124 168l90 232q78 -66 250 -129t296 -63q138 0 234 44q56 26 90 67t34 87q0 68 -84 96q-52 20 -210 38l-154 16q-154 16 -216 30t-124 46q-88 46 -138 136q-44 80 -44 186q0 172 114 286q150 148 456 148q130 0 278 -38t342 -166l-118 -216q-194 176 -494 190 q-108 0 -192 -26q-64 -20 -103 -60t-39 -88q0 -76 104 -104q48 -14 208 -30l158 -16q138 -16 223 -42t149 -72q66 -50 103 -130t37 -170q0 -144 -88 -256q-82 -102 -254 -152q-130 -36 -278 -36q-268 0 -630 192z" />
<glyph unicode="T" horiz-adv-x="1380" d="M30 1140v224h1322v-224h-528v-1140h-266v1140h-528z" />
<glyph unicode="U" horiz-adv-x="1670" d="M176 494v870h266v-786q0 -118 14 -174t52 -94q102 -102 340 -102t340 102q38 38 52 94t14 174v786h242v-870q0 -216 -76 -324q-140 -194 -584 -194q-322 0 -490 104q-96 62 -132 166q-38 104 -38 248z" />
<glyph unicode="V" horiz-adv-x="1576" d="M64 1364h286l446 -968l446 968h270l-602 -1364h-236z" />
<glyph unicode="W" horiz-adv-x="2310" d="M64 1364h276l336 -878l358 878h266l344 -882l350 882h262l-514 -1364h-196l-390 960l-390 -960h-194z" />
<glyph unicode="X" horiz-adv-x="1540" d="M74 0l538 696l-500 668h312l356 -448l364 448h302l-524 -654l542 -710h-328l-382 490l-378 -490h-302z" />
<glyph unicode="Y" d="M46 1364h314l372 -538l380 538h298l-548 -794v-570h-266v570z" />
<glyph unicode="Z" horiz-adv-x="1462" d="M98 0v70l810 1070h-804v224h1248v-56l-818 -1084h830v-224h-1266z" />
<glyph unicode="[" horiz-adv-x="682" />
<glyph unicode="\" horiz-adv-x="1554" />
<glyph unicode="]" horiz-adv-x="682" />
<glyph unicode="^" horiz-adv-x="1024" />
<glyph unicode="_" horiz-adv-x="1024" />
<glyph unicode="`" horiz-adv-x="1024" />
<glyph unicode="a" horiz-adv-x="1420" d="M74 0l536 1120h180l560 -1120h-236l-158 280h-534l-128 -280h-220zM482 436h410l-210 360z" />
<glyph unicode="b" horiz-adv-x="1386" d="M178 0v1120h704q200 0 292 -74q96 -78 96 -214q0 -80 -33 -131t-147 -99q110 -38 146 -76q70 -72 70 -194q0 -164 -118 -254q-106 -78 -294 -78h-716zM414 202h432q218 0 218 148q0 146 -218 146h-432v-294zM414 700h422q100 0 146 24t46 84t-45 84t-147 24h-422v-216z " />
<glyph unicode="c" horiz-adv-x="1426" d="M88 560q0 196 110 348q176 236 538 236q134 0 271 -47t299 -177l-94 -160q-76 74 -187 123t-245 49q-188 0 -310 -96q-140 -108 -140 -276q0 -170 140 -278q124 -96 310 -96q248 22 446 166l80 -176q-132 -98 -283 -149t-285 -51q-268 0 -438 130q-96 76 -152 188 q-60 122 -60 266z" />
<glyph unicode="d" horiz-adv-x="1440" d="M178 0v1120h576q202 0 318 -52q160 -72 230 -238q50 -116 50 -270q0 -288 -166 -436q-74 -66 -176 -95t-256 -29h-576zM414 202h302q202 0 298 90q96 94 96 268q0 172 -96 266q-50 48 -121 69t-177 21h-302v-714z" />
<glyph unicode="e" horiz-adv-x="1314" d="M178 0v1120h1018v-204h-782v-246h524v-194h-524v-274h812v-202h-1048z" />
<glyph unicode="f" horiz-adv-x="1248" d="M178 0v1120h1010v-204h-774v-246h524v-194h-524v-476h-236z" />
<glyph unicode="g" horiz-adv-x="1474" d="M88 554q0 198 118 352q186 238 550 238q162 0 274 -38t220 -106l-80 -192q-198 116 -406 124q-186 0 -306 -100q-128 -104 -128 -280q0 -164 116 -264q118 -100 330 -100q200 0 348 72v172h-358v168h540v-480q-248 -144 -566 -144q-272 0 -440 130q-92 72 -146 178 q-66 126 -66 270z" />
<glyph unicode="h" horiz-adv-x="1486" d="M178 0v1120h236v-430h656v430h236v-1120h-236v486h-656v-486h-236z" />
<glyph unicode="i" horiz-adv-x="592" d="M178 0v1120h236v-1120h-236z" />
<glyph unicode="j" horiz-adv-x="1034" d="M44 88l60 184q62 -34 150 -59t162 -25q112 0 169 48t57 148v736h236v-742q0 -184 -58 -264q-50 -66 -146 -102t-220 -36q-198 2 -410 112z" />
<glyph unicode="k" horiz-adv-x="1402" d="M178 0v1120h236v-470l608 470h276l-544 -456l562 -664h-292l-434 510l-176 -130v-380h-236z" />
<glyph unicode="l" horiz-adv-x="1176" d="M178 0v1120h236v-918h728v-202h-964z" />
<glyph unicode="m" horiz-adv-x="1676" d="M178 0v1120h246l412 -656l412 656h250v-1120h-236v736l-448 -702l-424 702v-736h-212z" />
<glyph unicode="n" horiz-adv-x="1522" d="M178 0v1120h208l746 -720v720h212v-1120h-186l-768 738v-738h-212z" />
<glyph unicode="o" d="M88 560q0 286 208 448q174 132 432 136q260 0 434 -136q208 -164 208 -458q0 -274 -208 -438q-172 -136 -432 -136q-262 0 -434 136q-208 164 -208 448zM330 560q0 -156 104 -260q116 -112 296 -112q178 0 294 112q104 102 104 254q0 166 -104 266q-116 110 -296 112 q-178 0 -294 -112q-104 -104 -104 -260z" />
<glyph unicode="p" horiz-adv-x="1334" d="M178 0v1120h650q212 0 318 -66q60 -38 94 -108t34 -156q0 -168 -109 -249t-337 -81h-414v-460h-236zM414 662h398q108 0 154 20q68 30 68 108t-70 106q-42 20 -152 20h-398v-254z" />
<glyph unicode="q" horiz-adv-x="1480" d="M88 560q0 282 208 448q174 136 434 136t432 -136q208 -166 208 -448q0 -252 -178 -414q106 -98 178 -186l-144 -152q-82 124 -186 224q-142 -56 -312 -56q-260 0 -432 136q-208 164 -208 448zM330 560q0 -156 104 -260q116 -112 294 -112q80 0 180 26q-86 94 -140 130 l76 120q102 -60 194 -136q92 98 92 234q0 154 -106 258q-114 112 -294 112t-296 -112q-104 -104 -104 -260z" />
<glyph unicode="r" horiz-adv-x="1406" d="M178 0v1120h654q140 0 213 -15t131 -53q112 -78 112 -258q0 -136 -70 -212t-256 -110l328 -472h-266l-318 460h-292v-460h-236zM414 662h420q96 0 142 20q72 28 72 108q0 70 -50 98t-164 28h-420v-254z" />
<glyph unicode="s" horiz-adv-x="1260" d="M102 774q0 184 150 282q140 88 348 88q114 0 237 -32t291 -136l-100 -168q-82 66 -196 99t-230 33q-100 0 -178 -28q-118 -38 -118 -112q0 -50 58 -70t208 -32l158 -12q206 -16 310 -80q56 -36 92 -96q48 -76 48 -170q0 -170 -146 -270q-144 -94 -390 -94h-20 q-250 0 -506 144l72 168q82 -48 206 -79t246 -31q108 0 196 28q114 34 114 110q0 62 -82 86q-50 16 -178 26l-156 14q-128 10 -193 26t-113 46q-60 40 -94 109t-34 151z" />
<glyph unicode="t" horiz-adv-x="1164" d="M32 916v204h1100v-204h-432v-916h-236v916h-432z" />
<glyph unicode="u" horiz-adv-x="1414" d="M156 424v696h236v-642q0 -94 17 -144t63 -82q86 -64 246 -64q162 0 248 64q44 32 61 82t17 144v642h212v-696q0 -202 -76 -298q-124 -150 -474 -150q-234 0 -378 72q-102 54 -138 152q-34 90 -34 224z" />
<glyph unicode="v" horiz-adv-x="1330" d="M58 1120h260l356 -766l360 766h236l-512 -1120h-180z" />
<glyph unicode="w" horiz-adv-x="1964" d="M64 1120h230l284 -692l288 692h244l282 -692l276 692h236l-426 -1120h-194l-304 778l-326 -778h-172z" />
<glyph unicode="x" horiz-adv-x="1300" d="M80 0l424 568l-400 552h280l276 -358l268 358h262l-412 -540l422 -580h-272l-302 382l-298 -382h-248z" />
<glyph unicode="y" horiz-adv-x="1226" d="M56 1120h272l298 -404l286 404h256l-438 -630v-490h-236v490z" />
<glyph unicode="z" horiz-adv-x="1246" d="M92 0v60l668 856h-660v204h1054v-50l-676 -868h686v-202h-1072z" />
<glyph unicode="{" horiz-adv-x="682" />
<glyph unicode="|" horiz-adv-x="1024" />
<glyph unicode="}" horiz-adv-x="682" />
<glyph unicode="~" horiz-adv-x="1364" />
<glyph unicode="&#xa1;" horiz-adv-x="774" />
<glyph unicode="&#xa2;" />
<glyph unicode="&#xa3;" />
<glyph unicode="&#xa4;" horiz-adv-x="1570" />
<glyph unicode="&#xa5;" />
<glyph unicode="&#xa6;" horiz-adv-x="1024" />
<glyph unicode="&#xa7;" horiz-adv-x="1374" />
<glyph unicode="&#xa8;" horiz-adv-x="1024" />
<glyph unicode="&#xa9;" horiz-adv-x="1808" />
<glyph unicode="&#xaa;" horiz-adv-x="1046" />
<glyph unicode="&#xab;" horiz-adv-x="996" />
<glyph unicode="&#xac;" horiz-adv-x="1024" />
<glyph unicode="&#xad;" horiz-adv-x="454" />
<glyph unicode="&#xae;" horiz-adv-x="1818" />
<glyph unicode="&#xaf;" horiz-adv-x="1024" />
<glyph unicode="&#xb0;" horiz-adv-x="944" />
<glyph unicode="&#xb1;" horiz-adv-x="1570" />
<glyph unicode="&#xb2;" horiz-adv-x="968" />
<glyph unicode="&#xb3;" horiz-adv-x="968" />
<glyph unicode="&#xb4;" horiz-adv-x="1024" />
<glyph unicode="&#xb5;" horiz-adv-x="984" />
<glyph unicode="&#xb6;" horiz-adv-x="1306" />
<glyph unicode="&#xb7;" horiz-adv-x="1024" />
<glyph unicode="&#xb8;" horiz-adv-x="1024" />
<glyph unicode="&#xb9;" horiz-adv-x="968" />
<glyph unicode="&#xba;" horiz-adv-x="1046" />
<glyph unicode="&#xbb;" horiz-adv-x="996" />
<glyph unicode="&#xbc;" horiz-adv-x="2526" />
<glyph unicode="&#xbd;" horiz-adv-x="2526" />
<glyph unicode="&#xbe;" horiz-adv-x="2526" />
<glyph unicode="&#xbf;" horiz-adv-x="1000" />
<glyph unicode="&#xc0;" horiz-adv-x="1666" />
<glyph unicode="&#xc1;" horiz-adv-x="1666" />
<glyph unicode="&#xc2;" horiz-adv-x="1666" />
<glyph unicode="&#xc3;" horiz-adv-x="1666" />
<glyph unicode="&#xc4;" horiz-adv-x="1666" />
<glyph unicode="&#xc5;" horiz-adv-x="1666" />
<glyph unicode="&#xc6;" horiz-adv-x="2380" />
<glyph unicode="&#xc7;" horiz-adv-x="1718" />
<glyph unicode="&#xc8;" horiz-adv-x="1556" />
<glyph unicode="&#xc9;" horiz-adv-x="1556" />
<glyph unicode="&#xca;" horiz-adv-x="1556" />
<glyph unicode="&#xcb;" horiz-adv-x="1556" />
<glyph unicode="&#xcc;" horiz-adv-x="672" />
<glyph unicode="&#xcd;" horiz-adv-x="672" />
<glyph unicode="&#xce;" horiz-adv-x="670" />
<glyph unicode="&#xcf;" horiz-adv-x="670" />
<glyph unicode="&#xd0;" horiz-adv-x="1716" />
<glyph unicode="&#xd1;" horiz-adv-x="1784" />
<glyph unicode="&#xd2;" horiz-adv-x="1752" />
<glyph unicode="&#xd3;" horiz-adv-x="1752" />
<glyph unicode="&#xd4;" horiz-adv-x="1752" />
<glyph unicode="&#xd5;" horiz-adv-x="1752" />
<glyph unicode="&#xd6;" horiz-adv-x="1752" />
<glyph unicode="&#xd7;" horiz-adv-x="1570" />
<glyph unicode="&#xd8;" horiz-adv-x="1752" />
<glyph unicode="&#xd9;" horiz-adv-x="1670" />
<glyph unicode="&#xda;" horiz-adv-x="1670" />
<glyph unicode="&#xdb;" horiz-adv-x="1670" />
<glyph unicode="&#xdc;" horiz-adv-x="1670" />
<glyph unicode="&#xdd;" />
<glyph unicode="&#xde;" horiz-adv-x="1464" />
<glyph unicode="&#xdf;" horiz-adv-x="2522" />
<glyph unicode="&#xe0;" horiz-adv-x="1420" />
<glyph unicode="&#xe1;" horiz-adv-x="1420" />
<glyph unicode="&#xe2;" horiz-adv-x="1420" />
<glyph unicode="&#xe3;" horiz-adv-x="1420" />
<glyph unicode="&#xe4;" horiz-adv-x="1420" />
<glyph unicode="&#xe5;" horiz-adv-x="1420" />
<glyph unicode="&#xe6;" horiz-adv-x="2090" />
<glyph unicode="&#xe7;" horiz-adv-x="1426" />
<glyph unicode="&#xe8;" horiz-adv-x="1314" />
<glyph unicode="&#xe9;" horiz-adv-x="1314" />
<glyph unicode="&#xea;" horiz-adv-x="1314" />
<glyph unicode="&#xeb;" horiz-adv-x="1314" />
<glyph unicode="&#xec;" horiz-adv-x="592" />
<glyph unicode="&#xed;" horiz-adv-x="592" />
<glyph unicode="&#xee;" horiz-adv-x="592" />
<glyph unicode="&#xef;" horiz-adv-x="592" />
<glyph unicode="&#xf0;" horiz-adv-x="1462" />
<glyph unicode="&#xf1;" horiz-adv-x="1522" />
<glyph unicode="&#xf2;" />
<glyph unicode="&#xf3;" />
<glyph unicode="&#xf4;" />
<glyph unicode="&#xf5;" />
<glyph unicode="&#xf6;" />
<glyph unicode="&#xf7;" horiz-adv-x="1570" />
<glyph unicode="&#xf8;" />
<glyph unicode="&#xf9;" horiz-adv-x="1414" />
<glyph unicode="&#xfa;" horiz-adv-x="1414" />
<glyph unicode="&#xfb;" horiz-adv-x="1414" />
<glyph unicode="&#xfc;" horiz-adv-x="1414" />
<glyph unicode="&#xfd;" horiz-adv-x="1226" />
<glyph unicode="&#xfe;" horiz-adv-x="1238" />
<glyph unicode="&#xff;" horiz-adv-x="1226" />
<glyph unicode="&#x152;" horiz-adv-x="2434" />
<glyph unicode="&#x153;" horiz-adv-x="2006" />
<glyph unicode="&#x178;" />
<glyph unicode="&#x2c6;" horiz-adv-x="1024" />
<glyph unicode="&#x2dc;" horiz-adv-x="1024" />
<glyph unicode="&#x2000;" horiz-adv-x="694" />
<glyph unicode="&#x2001;" horiz-adv-x="1388" />
<glyph unicode="&#x2002;" horiz-adv-x="694" />
<glyph unicode="&#x2003;" horiz-adv-x="1388" />
<glyph unicode="&#x2004;" horiz-adv-x="462" />
<glyph unicode="&#x2005;" horiz-adv-x="347" />
<glyph unicode="&#x2006;" horiz-adv-x="231" />
<glyph unicode="&#x2007;" horiz-adv-x="231" />
<glyph unicode="&#x2008;" horiz-adv-x="173" />
<glyph unicode="&#x2009;" horiz-adv-x="277" />
<glyph unicode="&#x200a;" horiz-adv-x="77" />
<glyph unicode="&#x2010;" horiz-adv-x="454" />
<glyph unicode="&#x2011;" horiz-adv-x="454" />
<glyph unicode="&#x2012;" horiz-adv-x="454" />
<glyph unicode="&#x2013;" horiz-adv-x="1576" />
<glyph unicode="&#x2014;" horiz-adv-x="1360" />
<glyph unicode="&#x2018;" horiz-adv-x="628" />
<glyph unicode="&#x2019;" horiz-adv-x="628" />
<glyph unicode="&#x201a;" horiz-adv-x="628" d="M166 142q0 74 36 118t96 44q82 0 124 -74q40 -68 40 -160q0 -220 -214 -384l-28 64q70 54 108 105t58 133q-70 -12 -90 -12q-58 0 -94 46t-36 120z" />
<glyph unicode="&#x201c;" horiz-adv-x="1106" />
<glyph unicode="&#x201d;" horiz-adv-x="1106" />
<glyph unicode="&#x201e;" horiz-adv-x="1106" />
<glyph unicode="&#x2022;" horiz-adv-x="1364" />
<glyph unicode="&#x2026;" horiz-adv-x="1884" />
<glyph unicode="&#x202f;" horiz-adv-x="277" />
<glyph unicode="&#x2039;" horiz-adv-x="640" />
<glyph unicode="&#x203a;" horiz-adv-x="640" />
<glyph unicode="&#x205f;" horiz-adv-x="347" />
<glyph unicode="&#x2122;" horiz-adv-x="2082" />
<glyph unicode="&#x25fc;" horiz-adv-x="1120" d="M0 0v1120h1120v-1120h-1120z" />
</font>
</defs>
</svg>
